<?xml version="1.0" encoding="UTF-8"?>
<svg version="1.1" xmlns="http://www.w3.org/2000/svg" width="512" height="512">
<path d="M0 0 C9.77784878 6.90350419 15.55235949 19.22064257 21.3125 29.5 C21.68562317 30.16213501 22.05874634 30.82427002 22.44317627 31.50646973 C46.75047571 75.22565666 39.75026823 127.80683819 37 176 C47.56 176 58.12 176 69 176 C68.83242187 173.06351563 68.66484375 170.12703125 68.4921875 167.1015625 C63.16103189 67.70032997 63.16103189 67.70032997 84.6875 29.5 C85.24621796 28.5029303 85.24621796 28.5029303 85.81622314 27.48571777 C98.25908082 5.46536045 98.25908082 5.46536045 106 0 C109.77251054 -0.62875176 111.32742513 -0.47486145 114.46842957 1.74279785 C122.64230423 9.0307987 127.99382538 20.00846807 133.3125 29.5 C133.68562317 30.16213501 134.05874634 30.82427002 134.44317627 31.50646973 C158.72861066 75.18633013 151.82629193 127.83767827 149 176 C158.33078997 178.48890379 168.03318409 178.8957531 177 175 C190.97050649 166.55795069 202.3214167 152.92898015 213.51207624 141.25168192 C218.22968181 136.33462043 223.02582712 131.49716662 227.82731204 126.66221309 C236.38631158 118.03956598 244.88389058 109.35900321 253.34326172 100.63867188 C261.54683948 92.18230354 269.77744304 83.7538135 278.04638672 75.36132812 C278.81326197 74.58296447 278.81326197 74.58296447 279.59562965 73.7888763 C282.16136484 71.18508373 284.72770697 68.58189044 287.29443479 65.97907639 C292.27620816 60.9272328 297.25542729 55.87287525 302.23300171 50.81689453 C302.95384864 50.08473626 302.95384864 50.08473626 303.68925814 49.33778691 C310.79876124 42.11531207 317.88741517 34.87283242 324.96255493 27.61669922 C326.28458864 26.2613784 326.28458864 26.2613784 327.63333011 24.87867737 C331.76589979 20.64122736 335.89541183 16.40086785 340.01992798 12.15557861 C341.46060409 10.67672144 342.90135457 9.19793671 344.3421936 7.71923828 C344.99429357 7.04580824 345.64639354 6.3723782 346.31825411 5.67854118 C346.91107947 5.071056 347.50390483 4.46357082 348.1146946 3.837677 C348.88364443 3.04620364 348.88364443 3.04620364 349.66812861 2.23874092 C352.47031747 -0.36750622 355.22228863 -0.22138093 358.9296875 -0.42578125 C362.04416571 0.21474351 363.06574417 1.49413237 365 4 C365.39207261 6.75146191 365.53790488 9.10237239 365.50336456 11.85241699 C365.50917833 12.65274636 365.51499209 13.45307573 365.52098203 14.27765751 C365.53565335 16.97642231 365.52166387 19.67428775 365.50793457 22.37304688 C365.51254067 24.32055885 365.51889162 26.26806735 365.52684355 28.21556854 C365.54359995 33.5804455 365.53526187 38.94503923 365.52289867 44.30991745 C365.51387626 50.09050198 365.52780392 55.8710366 365.53881836 61.65161133 C365.55663826 72.98098517 365.55274815 84.31025322 365.5411678 95.63963127 C365.53214738 104.84431708 365.53090343 114.04897316 365.53526306 123.25366211 C365.53587599 124.56193576 365.53648893 125.87020942 365.53712043 127.21812773 C365.53839929 129.87556268 365.53969614 132.53299762 365.5410108 135.19043255 C365.55250327 159.41872648 365.54058499 183.64696686 365.51964041 207.87525165 C365.50065732 230.00280289 365.50235581 252.13026206 365.52148438 274.2578125 C365.54289306 299.10614708 365.55132803 323.95443 365.53903532 348.80277252 C365.53776108 351.45062764 365.53650359 354.09848276 365.53526306 356.74633789 C365.53433741 358.70071376 365.53433741 358.70071376 365.53339306 360.69457197 C365.52993417 369.8920156 365.53578009 379.08942665 365.54518127 388.28686523 C365.55638049 399.49001476 365.55340502 410.69305212 365.5320583 421.89618874 C365.5215199 427.61612753 365.51747348 433.33587909 365.53065491 439.05581665 C365.54252693 444.28652667 365.53610231 449.51687496 365.5147447 454.74755192 C365.51025654 456.6451993 365.51259412 458.5428769 365.52224785 460.44050503 C365.53432213 463.00997231 365.52202924 465.57818261 365.50336456 468.14758301 C365.51272923 468.89318261 365.52209389 469.63878222 365.53174233 470.40697575 C365.48462038 473.62811558 365.18233495 475.70894801 363.45931578 478.45931578 C360.06534944 480.58552927 357.03031456 480.55213133 353.14758301 480.50336456 C351.94708895 480.51208521 351.94708895 480.51208521 350.72234249 480.52098203 C348.02357769 480.53565335 345.32571225 480.52166387 342.62695312 480.50793457 C340.67944115 480.51254067 338.73193265 480.51889162 336.78443146 480.52684355 C331.4195545 480.54359995 326.05496077 480.53526187 320.69008255 480.52289867 C314.90949802 480.51387626 309.1289634 480.52780392 303.34838867 480.53881836 C292.01901483 480.55663826 280.68974678 480.55274815 269.36036873 480.5411678 C260.15568292 480.53214738 250.95102684 480.53090343 241.74633789 480.53526306 C240.43806424 480.53587599 239.12979058 480.53648893 237.78187227 480.53712043 C235.12443732 480.53839929 232.46700238 480.53969614 229.80956745 480.5410108 C205.58127352 480.55250327 181.35303314 480.54058499 157.12474835 480.51964041 C134.99719711 480.50065732 112.86973794 480.50235581 90.7421875 480.52148438 C65.89385292 480.54289306 41.04557 480.55132803 16.19722748 480.53903532 C13.54937236 480.53776108 10.90151724 480.53650359 8.25366211 480.53526306 C6.29928624 480.53433741 6.29928624 480.53433741 4.30542803 480.53339306 C-4.8920156 480.52993417 -14.08942665 480.53578009 -23.28686523 480.54518127 C-34.49001476 480.55638049 -45.69305212 480.55340502 -56.89618874 480.5320583 C-62.61612753 480.5215199 -68.33587909 480.51747348 -74.05581665 480.53065491 C-79.28652667 480.54252693 -84.51687496 480.53610231 -89.74755192 480.5147447 C-91.6451993 480.51025654 -93.5428769 480.51259412 -95.44050503 480.52224785 C-98.00997231 480.53432213 -100.57818261 480.52202924 -103.14758301 480.50336456 C-104.26598241 480.51741156 -104.26598241 480.51741156 -105.40697575 480.53174233 C-108.79456929 480.48218533 -110.68469963 480.23148131 -113.44780731 478.20291471 C-115.32223471 475.5426756 -115.74873788 473.37399986 -115.57185149 470.12731218 C-113.77874178 463.45686681 -106.36347118 458.4809712 -101.21063375 454.35481739 C-84.64734871 441.040844 -66.98225841 426.63336516 -64.01464105 404.52616167 C-62.95151505 393.15623793 -63.34927264 381.7572914 -63.87403965 370.36979103 C-64.11557877 364.1412565 -64.11835228 357.91206445 -64.14862061 351.67956543 C-64.23962297 339.93617555 -64.52984232 328.20728621 -64.90002322 316.46972418 C-65.18933854 307.11050583 -65.39403612 297.75364961 -65.53173828 288.39111328 C-65.54641362 287.39658953 -65.54641362 287.39658953 -65.56138542 286.3819744 C-65.62908482 281.73516492 -65.69195908 277.08829612 -65.75390625 272.44140625 C-65.8230206 267.28680264 -65.89332795 262.13221926 -65.96575928 256.97766113 C-65.98318798 255.72983683 -66.00061668 254.48201253 -66.01857352 253.19637537 C-66.12804115 245.81092505 -66.2835478 238.42821652 -66.48347044 231.04466629 C-66.60719727 226.47207646 -66.71725842 221.89919548 -66.82709694 217.32625389 C-66.8824021 215.21046715 -66.94512586 213.09485914 -67.01586723 210.97953224 C-67.11235391 208.09006799 -67.18368144 205.20096308 -67.24981689 202.31066895 C-67.2848621 201.4780112 -67.31990731 200.64535346 -67.35601449 199.78746367 C-67.47089602 192.99216342 -65.52741616 187.88416874 -61.03515625 182.7578125 C-54.81296393 177.60756222 -51.20996602 175.91378099 -43 176 C-43.10658936 174.18363037 -43.10658936 174.18363037 -43.21533203 172.33056641 C-49.12586575 68.20945131 -49.12586575 68.20945131 -27.3125 29.5 C-26.75378204 28.5029303 -26.75378204 28.5029303 -26.18377686 27.48571777 C-9.73576919 -1.6226282 -9.73576919 -1.6226282 0 0 Z M256.02929688 230.34570312 C251.07534713 235.00195073 246.07906208 239.60690803 241.05859375 244.19140625 C237.51537155 247.43556321 234.00834754 250.71822586 230.5 254 C225.99903077 258.20970327 221.4847313 262.40278242 216.9375 266.5625 C216.04757355 267.40351761 215.15764709 268.24453522 214.24075317 269.11103821 C212.06424504 271.11909887 209.82847239 272.86820038 207.4057312 274.56877136 C201.74014067 278.76810983 197.02629098 282.76798777 195.77178955 289.98379517 C195.20646784 295.96822813 195.42206203 301.92788519 195.6328125 307.92578125 C195.65897015 310.12674114 195.67887694 312.32778334 195.69284058 314.52885437 C195.74594321 320.28334192 195.88312571 326.0327709 196.03869629 331.78527832 C196.20807527 338.70777591 196.27154505 345.6319789 196.3530426 352.55596161 C196.48817637 363.04081064 196.75655773 373.51459357 197 384 C223.4 384 249.8 384 277 384 C277 327.24 277 270.48 277 212 C271.63757574 212 260.07033687 226.54569441 256.02929688 230.34570312 Z " fill="#000000" transform="translate(131,16)"/>
<path d="M0 0 C0.90320937 -0.00638882 1.80641873 -0.01277764 2.73699808 -0.01936007 C5.76436548 -0.03462405 8.79042713 -0.01413919 11.81774902 0.00622559 C13.98769057 0.00272482 16.15762956 -0.00293325 18.32756042 -0.0105896 C24.2222102 -0.02485349 30.1163944 -0.00775997 36.01099968 0.01569557 C42.17595128 0.03578125 48.34088311 0.0299262 54.50585938 0.02758789 C64.85941256 0.02764149 75.2127834 0.04741324 85.56628418 0.07946777 C97.54118647 0.11636166 109.51571763 0.12514358 121.49067736 0.11817026 C133.00396487 0.11186785 144.51717033 0.12261473 156.03044128 0.14213562 C160.93305123 0.15031635 165.83561927 0.15301792 170.73823547 0.15144348 C176.51010879 0.15056538 182.28175458 0.16476101 188.05356789 0.19067001 C190.17358612 0.19784015 192.29362854 0.19991138 194.41365623 0.19655228 C197.30425767 0.19284546 200.1941922 0.20755753 203.0847168 0.22705078 C203.92664156 0.22172286 204.76856633 0.21639493 205.63600397 0.21090555 C210.25135598 0.26472229 213.29324385 0.62547909 217.0423584 3.62145996 C218.72805153 6.99284623 218.18644424 10.81371791 218.18280029 14.52204895 C218.18577142 15.45536346 218.18874254 16.38867797 218.19180369 17.35027474 C218.20051827 20.49707523 218.20200126 23.6438378 218.20349121 26.79064941 C218.20811743 29.03896161 218.21314182 31.28727301 218.21853638 33.5355835 C218.23168121 39.65750607 218.23810938 45.77941768 218.24254704 51.90135217 C218.24547438 55.72297009 218.24957854 59.54458499 218.25405121 63.3662014 C218.26616309 73.94424597 218.27654415 84.52228791 218.2799263 95.10033894 C218.28025565 96.11622132 218.28025565 96.11622132 218.28059165 97.15262659 C218.28080993 97.83151618 218.28102821 98.51040577 218.2812531 99.20986778 C218.28169657 100.58559056 218.28214313 101.96131335 218.28259277 103.33703613 C218.28292492 104.36064847 218.28292492 104.36064847 218.28326377 105.40493985 C218.28721179 116.46245883 218.30466528 127.51991191 218.3279523 138.57740543 C218.35166014 149.92621244 218.36386986 161.27497524 218.36529422 172.62381142 C218.36634409 178.99727085 218.37229048 185.37063738 218.39011383 191.74407387 C218.40655 197.73829141 218.40877168 203.73234577 218.39997482 209.72657776 C218.39920206 211.92884952 218.40357849 214.1311299 218.41343307 216.33337975 C218.42608195 219.33575609 218.42031411 222.33754831 218.40985107 225.33992004 C218.42193568 226.65256811 218.42193568 226.65256811 218.43426442 227.99173433 C218.39618188 232.65201189 218.17155232 235.8946906 215.0423584 239.62145996 C211.12565448 240.92702793 207.40115319 240.76607137 203.3184967 240.76190186 C201.96518758 240.76635854 201.96518758 240.76635854 200.58453888 240.77090526 C197.54906643 240.77960519 194.51363336 240.78110159 191.47814941 240.78259277 C189.3068839 240.78721995 187.13561921 240.79224447 184.96435547 240.79763794 C179.05742844 240.81077171 173.15051278 240.81720855 167.24357343 240.8216486 C163.55613313 240.82457712 159.86869597 240.82868146 156.18125725 240.83315277 C144.65251383 240.8468289 133.12377753 240.85649558 121.59502655 240.86035466 C108.2705926 240.86483896 94.94629291 240.8824036 81.62188774 240.91135526 C71.33225116 240.93293983 61.04264346 240.94305718 50.75298446 240.94439578 C44.6025769 240.94544592 38.45226559 240.95139828 32.30188179 240.96921539 C26.51941245 240.98564084 20.73711228 240.98787854 14.95462799 240.97907639 C12.82933793 240.9783031 10.70403898 240.98268686 8.57877159 240.99253464 C5.68337826 241.00516694 2.78859207 240.99942499 -0.10679626 240.98895264 C-0.95299811 240.99700904 -1.79919996 241.00506545 -2.67104429 241.01336598 C-5.99842773 240.9851076 -8.48502302 240.87487175 -11.44831944 239.28599167 C-14.92449699 235.45234509 -14.10879172 230.45626766 -14.11154175 225.60061646 C-14.115924 224.66644752 -14.12030626 223.73227858 -14.12482131 222.7698015 C-14.1382218 219.62611403 -14.14439092 216.4824546 -14.1505127 213.33874512 C-14.1584125 211.09028496 -14.16668138 208.84182607 -14.17529297 206.59336853 C-14.20152116 199.19909884 -14.21681871 191.80482346 -14.2310791 184.41052246 C-14.23643794 181.86762869 -14.24181545 179.32473497 -14.24721146 176.78184128 C-14.26883893 166.20804901 -14.28772891 155.63425809 -14.29883385 145.0604496 C-14.30176354 142.31711447 -14.30472521 139.57377938 -14.30773926 136.83044434 C-14.30848531 136.14860161 -14.30923136 135.46675888 -14.31000002 134.76425426 C-14.32265986 123.71321723 -14.35589263 112.66234086 -14.39754109 101.61137898 C-14.43994506 90.2670579 -14.46311914 78.92284897 -14.46875441 67.57843816 C-14.4724145 61.20826965 -14.48450636 54.83837368 -14.51685715 48.46828079 C-14.54684315 42.47807683 -14.55328329 36.4883117 -14.54147339 30.49804878 C-14.54125188 28.29737656 -14.54962043 26.09668452 -14.56712723 23.89608192 C-14.58970169 20.89561129 -14.58157804 17.8967478 -14.56564331 14.89627075 C-14.5795254 14.02185416 -14.59340749 13.14743757 -14.60771024 12.2465235 C-14.55377624 8.13562606 -14.26820517 6.09886237 -11.97949409 2.58062553 C-7.86881556 -0.08446149 -4.80473502 -0.07143743 0 0 Z " fill="#355D7C" transform="translate(93.9576416015625,207.3785400390625)"/>
<path d="M0 0 C0 11.88 0 23.76 0 36 C-7.92 36 -15.84 36 -24 36 C-24 41.28 -24 46.56 -24 52 C-16.08 52 -8.16 52 0 52 C0 59.92 0 67.84 0 76 C-13.2 76 -26.4 76 -40 76 C-40 81.28 -40 86.56 -40 92 C-26.8 92 -13.6 92 0 92 C0 99.92 0 107.84 0 116 C-7.92 116 -15.84 116 -24 116 C-24 121.28 -24 126.56 -24 132 C-16.08 132 -8.16 132 0 132 C0 139.92 0 147.84 0 156 C-7.92 156 -15.84 156 -24 156 C-24 161.28 -24 166.56 -24 172 C-16.08 172 -8.16 172 0 172 C0 179.92 0 187.84 0 196 C-13.2 196 -26.4 196 -40 196 C-40 201.28 -40 206.56 -40 212 C-26.8 212 -13.6 212 0 212 C0 219.92 0 227.84 0 236 C-7.92 236 -15.84 236 -24 236 C-24 241.28 -24 246.56 -24 252 C-16.08 252 -8.16 252 0 252 C0 259.92 0 267.84 0 276 C-7.92 276 -15.84 276 -24 276 C-24 281.28 -24 286.56 -24 292 C-16.08 292 -8.16 292 0 292 C0 299.92 0 307.84 0 316 C-13.2 316 -26.4 316 -40 316 C-40 321.28 -40 326.56 -40 332 C-26.8 332 -13.6 332 0 332 C0 339.92 0 347.84 0 356 C-7.92 356 -15.84 356 -24 356 C-24 361.28 -24 366.56 -24 372 C-16.08 372 -8.16 372 0 372 C0 379.92 0 387.84 0 396 C-7.92 396 -15.84 396 -24 396 C-24 401.28 -24 406.56 -24 412 C-16.08 412 -8.16 412 0 412 C0 419.92 0 427.84 0 436 C-143.88 436 -287.76 436 -436 436 C-432.51466895 431.93378044 -429.23815147 428.11323733 -425.4765625 424.37890625 C-424.68378906 423.58935547 -423.89101563 422.79980469 -423.07421875 421.98632812 C-421.86185547 420.7865332 -421.86185547 420.7865332 -420.625 419.5625 C-419.79355469 418.73556641 -418.96210938 417.90863281 -418.10546875 417.05664062 C-416.0725896 415.03544469 -414.03740037 413.01663665 -412 411 C-408.59330508 412.66432941 -405.71024641 414.60723153 -402.68359375 416.87890625 C-398.49496095 419.66808865 -393.91130553 419.15113362 -389.08872986 419.15390015 C-388.16625586 419.1582824 -387.24378185 419.16266465 -386.29335409 419.1671797 C-383.18897556 419.18058 -380.08462543 419.18674938 -376.98022461 419.19287109 C-374.75958121 419.20077119 -372.5389391 419.20904008 -370.31829834 419.21765137 C-363.01299264 419.24388571 -355.70768117 419.25918205 -348.40234375 419.2734375 C-345.88804178 419.27879691 -343.37373984 419.28417441 -340.85943794 419.28956985 C-330.39974859 419.31120209 -319.94005937 419.3300895 -309.48035336 419.34119225 C-306.76628045 419.34412183 -304.05220758 419.3470835 -301.33813477 419.35009766 C-300.66358482 419.35084371 -299.98903488 419.35158976 -299.29404403 419.35235842 C-288.37571414 419.36500206 -277.45754747 419.39821195 -266.53929382 419.43989949 C-255.32265063 419.48237413 -244.10608761 419.50548649 -232.88935477 419.51111281 C-226.59447843 419.51476536 -220.29987865 419.52677676 -214.00507927 419.55921555 C-208.07969979 419.5893121 -202.15476397 419.59560198 -196.22932434 419.58383179 C-194.05816557 419.58361118 -191.88698612 419.59190559 -189.71589851 419.60948563 C-173.40926752 420.07983123 -173.40926752 420.07983123 -159.42182827 412.59261131 C-152.20608794 404.80207066 -152.48114051 396.09721678 -152.3125 386.0625 C-152.27927987 384.69723375 -152.24478596 383.33199787 -152.20898438 381.96679688 C-152.12681024 378.64461414 -152.05755632 375.3226853 -152 372 C-150.88135559 371.99191315 -149.76271118 371.98382629 -148.61016846 371.97549438 C-138.07455282 371.89805258 -127.53906664 371.81031818 -117.00362015 371.71247292 C-111.58707497 371.66249986 -106.17054939 371.61616981 -100.75390625 371.578125 C-95.52779961 371.54128509 -90.30185654 371.49492848 -85.07588959 371.44193649 C-83.08080664 371.42338569 -81.08568861 371.40828028 -79.09055328 371.39665604 C-76.29880476 371.37980544 -73.50743143 371.35077309 -70.71582031 371.31884766 C-69.88863495 371.31668747 -69.06144958 371.31452728 -68.209198 371.31230164 C-62.75676804 371.31994656 -62.75676804 371.31994656 -58 369 C-56.75318738 365.25956213 -56.85191528 361.77983226 -56.85282898 357.88356018 C-56.84731395 356.62825631 -56.84731395 356.62825631 -56.8416875 355.34759277 C-56.83064245 352.53323603 -56.82680548 349.7189162 -56.82299805 346.90454102 C-56.81673419 344.89090863 -56.81008746 342.87727741 -56.80308533 340.86364746 C-56.78567245 335.38646251 -56.77512351 329.90928628 -56.7668798 324.43208051 C-56.76173192 321.01265578 -56.7556562 317.59323377 -56.74936867 314.17381096 C-56.73031871 303.48228127 -56.71608523 292.79075849 -56.7077567 282.09921509 C-56.6979737 269.74372365 -56.67162559 257.38841086 -56.63125581 245.03298241 C-56.60114331 235.49068628 -56.58629259 225.94844152 -56.58297569 216.40609878 C-56.58062031 210.70278149 -56.57159616 204.9996551 -56.54651451 199.29638863 C-56.52331284 193.93411439 -56.51896861 188.57215783 -56.52927589 183.2098465 C-56.52977324 181.23935581 -56.52339466 179.2688499 -56.50971985 177.2984066 C-56.49212249 174.61302684 -56.49904653 171.9288024 -56.51225281 169.24342346 C-56.50128356 168.45947679 -56.49031432 167.67553011 -56.47901267 166.86782748 C-56.5209151 163.35087902 -56.71623311 161.377455 -58.8586092 158.52775478 C-60.95926482 156.83194772 -60.95926482 156.83194772 -63.75 156.3125 C-68.77306825 157.37507213 -71.37860435 160.49177297 -75 164 C-76.47779054 165.35932635 -77.95579854 166.71842404 -79.4375 168.07348633 C-85.49403781 173.62318947 -91.48205401 179.24768508 -97.48266602 184.85766602 C-102.2621887 189.32212296 -107.07858634 193.74386924 -111.90625 198.15625 C-115.45977579 201.41364864 -118.97936741 204.70713642 -122.5 208 C-150.31017134 234 -150.31017134 234 -152 234 C-152.00364563 233.16585571 -152.00729126 232.33171143 -152.01104736 231.47229004 C-152.04901435 223.58669354 -152.10596539 215.70150697 -152.18390274 207.81620026 C-152.22330485 203.76286775 -152.25552863 199.70975011 -152.27099609 195.65625 C-152.28621104 191.73967978 -152.32074091 187.82370057 -152.36830902 183.90739441 C-152.38307328 182.41803646 -152.39103816 180.9285941 -152.39188385 179.43916321 C-152.40122545 171.23168905 -152.933521 165.24226722 -157 158 C-155.79551795 153.68685833 -152.0124761 150.7383989 -148.91978455 147.67254639 C-148.2899142 147.04026162 -147.66004385 146.40797686 -147.01108652 145.75653195 C-144.89615836 143.63596133 -142.77414777 141.52262357 -140.65209961 139.40917969 C-139.13578243 137.89178979 -137.61989825 136.37396708 -136.10441589 134.85574341 C-131.98520653 130.73168197 -127.85976653 126.61390521 -123.73306346 122.49734402 C-119.42208088 118.1951325 -115.1163586 113.88766242 -110.80995178 109.58087158 C-103.57942453 102.35128117 -96.34503215 95.12557686 -89.1081543 87.90234375 C-80.72849596 79.53842597 -72.35409086 71.16927792 -63.98266596 62.79711986 C-55.94188867 54.75573336 -47.89826319 46.71720256 -39.85302925 38.68027496 C-36.42282193 35.25360786 -32.99347401 31.82608401 -29.56477165 28.39791107 C-25.53298522 24.3671253 -21.49867196 20.33888582 -17.46234322 16.31264877 C-15.97672552 14.82996464 -14.49196594 13.34642015 -13.00810242 11.86198044 C-10.99211328 9.84550454 -8.97310211 7.83210611 -6.95323181 5.81951904 C-6.35830285 5.22304148 -5.7633739 4.62656393 -5.15041679 4.01201129 C-1.11417874 0 -1.11417874 0 0 0 Z " fill="#F9DF57" transform="translate(480,44)"/>
<path d="M0 0 C0.77253569 -0.00638882 1.54507138 -0.01277764 2.34101725 -0.01936007 C4.9262383 -0.03460464 7.50992542 -0.01415359 10.09509277 0.00622559 C11.94976814 0.00272421 13.80444052 -0.00293455 15.65910339 -0.0105896 C20.69430568 -0.02484489 25.72896234 -0.00776867 30.76411247 0.01569557 C36.03219278 0.03579273 41.30025017 0.0299256 46.56835938 0.02758789 C55.41541551 0.02764147 64.26225815 0.04740576 73.10925293 0.07946777 C83.33911423 0.11636106 93.56869584 0.12514343 103.79861498 0.11817026 C113.63748485 0.11186605 123.47625875 0.12261806 133.31510925 0.14213562 C137.50320299 0.15031256 141.6912477 0.15301862 145.87934875 0.15144348 C150.81076383 0.15056484 155.74191292 0.16477531 160.67325783 0.19067001 C162.48366316 0.19783507 164.29409678 0.19991381 166.10451317 0.19655228 C168.57476591 0.19284033 171.04424117 0.20757463 173.5144043 0.22705078 C174.59052593 0.21905889 174.59052593 0.21905889 175.68838739 0.21090555 C180.03484066 0.27007915 182.79661849 0.95706598 186.25720215 3.62145996 C187.59562392 6.2983035 187.39910183 8.37131417 187.41833496 11.36877441 C187.4279425 12.57375076 187.43755005 13.77872711 187.44744873 15.0202179 C187.45382355 16.98265694 187.45382355 16.98265694 187.46032715 18.98474121 C187.4660796 20.33753969 187.47183732 21.69033816 187.4776001 23.0431366 C187.48811066 25.88199239 187.49395263 28.72081987 187.49743652 31.55969238 C187.50291476 35.19135633 187.52692766 38.82264411 187.55540848 42.45419025 C187.57406669 45.25008727 187.57924218 48.04589437 187.5807724 50.84184837 C187.58525979 52.82989722 187.60389311 54.81789787 187.6227417 56.80586243 C187.6197406 58.02029526 187.6167395 59.23472809 187.61364746 60.48596191 C187.61911591 62.08574638 187.61911591 62.08574638 187.62469482 63.71784973 C187.20012316 67.07244891 186.30260948 68.94493618 184.25720215 71.62145996 C180.69161032 72.80999057 177.45862555 72.76634298 173.7481842 72.76190186 C172.9766518 72.76487298 172.20511939 72.7678441 171.41020721 72.77090526 C168.8169583 72.7795983 166.22375551 72.781101 163.63049316 72.78259277 C161.77449444 72.78722043 159.91849666 72.79224502 158.0625 72.79763794 C153.01504975 72.81076697 147.9676128 72.81720762 142.92014813 72.8216486 C139.76873867 72.82457787 136.61733285 72.82868235 133.46592522 72.83315277 C123.61160504 72.84682761 113.75729319 72.85649494 103.90296417 72.86035466 C92.51646989 72.86483873 81.13009545 72.88240286 69.74363762 72.91135526 C60.94868044 72.93294447 52.15375705 72.94305743 43.35877365 72.94439578 C38.10262094 72.94544558 32.84658089 72.95139076 27.59045601 72.96921539 C22.64845239 72.9856489 17.70664669 72.98787463 12.76462555 72.97907639 C10.94894571 72.97830353 9.13325543 72.98268123 7.31760216 72.99253464 C4.84256452 73.00518087 2.36823574 72.99941773 -0.10679626 72.98895264 C-1.18933352 73.00103724 -1.18933352 73.00103724 -2.29374021 73.01336598 C-5.35261224 72.98303006 -7.45794084 72.77899904 -10.15754795 71.28599167 C-13.13314262 68.16158102 -12.88602369 64.85994939 -12.93566895 60.76062012 C-12.95173187 59.5557193 -12.9677948 58.35081848 -12.98434448 57.10940552 C-13.02876639 51.60886853 -13.0702808 46.10846172 -13.09289551 40.60778809 C-13.10624221 37.70349686 -13.13411111 34.79990704 -13.17492676 31.89587402 C-13.22427236 28.38452544 -13.24901794 24.87381353 -13.25612259 21.36213303 C-13.26608278 19.37840891 -13.30031869 17.39485463 -13.33493042 15.41140747 C-13.33208038 14.20020233 -13.32923035 12.98899719 -13.32629395 11.74108887 C-13.3343808 10.67758209 -13.34246765 9.61407532 -13.35079956 8.51834106 C-11.83945544 1.31740039 -6.58673236 -0.11492899 0 0 Z " fill="#000000" transform="translate(108.7427978515625,223.3785400390625)"/>
<path d="M0 0 C55.44 0 110.88 0 168 0 C168 13.2 168 26.4 168 40 C112.56 40 57.12 40 0 40 C0 26.8 0 13.6 0 0 Z " fill="#2488FF" transform="translate(112,240)"/>
<path d="M0 0 C0.88441772 -0.00930542 1.76883545 -0.01861084 2.68005371 -0.02819824 C4.09429626 -0.00360535 4.09429626 -0.00360535 5.53710938 0.02148438 C6.51699829 0.02144409 7.49688721 0.02140381 8.50646973 0.0213623 C10.57420276 0.02671379 12.64193553 0.04428058 14.70947266 0.07324219 C17.87010012 0.11509191 21.02859531 0.11430935 24.18945312 0.10742188 C26.20118665 0.11791509 28.21290921 0.1308539 30.22460938 0.14648438 C31.16743774 0.14668579 32.11026611 0.14688721 33.08166504 0.14709473 C37.95788139 0.23482442 41.4609723 0.37050515 45.38085938 3.61523438 C46.55296965 5.95945492 46.51153059 7.34734535 46.52130127 9.9601593 C46.52701141 10.87282562 46.53272156 11.78549194 46.53860474 12.72581482 C46.5397226 13.72999954 46.54084045 14.73418427 46.54199219 15.76879883 C46.54943954 17.3518985 46.54943954 17.3518985 46.55703735 18.96697998 C46.57168486 22.47083174 46.57846543 25.97463823 46.58398438 29.47851562 C46.58973386 31.90748598 46.59549162 34.33645632 46.60125732 36.76542664 C46.6117748 41.86404635 46.61761252 46.96265026 46.62109375 52.0612793 C46.62657886 58.59850943 46.65060431 65.13553131 46.6790657 71.67269611 C46.69767848 76.69209912 46.70289697 81.71145185 46.70442963 86.73088646 C46.70745994 89.14105556 46.71550116 91.5512237 46.72861481 93.96135902 C46.74564587 97.33222975 46.74380195 100.70259018 46.73730469 104.07348633 C46.75112686 105.57065437 46.75112686 105.57065437 46.76522827 107.09806824 C46.71257686 115.80649745 46.71257686 115.80649745 43.38085938 119.61523438 C40.59011774 120.54548159 38.86002663 120.75111617 35.97290039 120.77636719 C35.08510391 120.78597473 34.19730743 120.79558228 33.28260803 120.80548096 C31.84817604 120.81185577 31.84817604 120.81185577 30.38476562 120.81835938 C28.9071299 120.82690948 28.9071299 120.82690948 27.39964294 120.83563232 C25.31583734 120.84507871 23.23201681 120.85161487 21.14819336 120.85546875 C17.95920857 120.86518608 14.77086509 120.89621783 11.58203125 120.92773438 C9.55794654 120.93426339 7.53385722 120.93951426 5.50976562 120.94335938 C4.55550186 120.95570618 3.6012381 120.96805298 2.61805725 120.98077393 C1.72710861 120.97777283 0.83615997 120.97477173 -0.08178711 120.97167969 C-0.86327621 120.97532532 -1.64476532 120.97897095 -2.44993591 120.98272705 C-5.22048178 120.51335903 -6.58062023 119.52346978 -8.61914062 117.61523438 C-9.55658741 114.80289401 -9.75261864 113.06200925 -9.77304077 110.15005493 C-9.78164124 109.23601395 -9.7902417 108.32197296 -9.79910278 107.38023376 C-9.80336273 106.37964432 -9.80762268 105.37905487 -9.81201172 104.34814453 C-9.82018921 103.29259872 -9.8283667 102.23705292 -9.83679199 101.14952087 C-9.86163677 97.65111867 -9.87815765 94.15275694 -9.89257812 90.65429688 C-9.8979018 89.46073956 -9.90322548 88.26718224 -9.90871048 87.03745651 C-9.93543505 80.7228942 -9.95481427 74.40835165 -9.96923828 68.09375 C-9.98590578 61.56425575 -10.03070382 55.03526429 -10.08160973 48.50596046 C-10.11521879 43.49084881 -10.12680866 38.47585761 -10.13246536 33.46064377 C-10.13919279 31.05323813 -10.15445322 28.64584083 -10.17835617 26.23854446 C-10.20987999 22.87231297 -10.21006337 19.50745286 -10.20263672 16.14111328 C-10.21904205 15.1445723 -10.23544739 14.14803131 -10.25234985 13.12129211 C-10.21081726 8.52950232 -10.11671317 6.30575604 -7.37136841 2.49581909 C-4.55485062 0.5713053 -3.34598692 -0.00889009 0 0 Z " fill="#000000" transform="translate(249.619140625,311.384765625)"/>
<path d="M0 0 C15.84 0 31.68 0 48 0 C48 29.04 48 58.08 48 88 C32.16 88 16.32 88 0 88 C0 58.96 0 29.92 0 0 Z " fill="#DD5528" transform="translate(104,104)"/>
<path d="M0 0 C1.58767357 0.86286607 3.17115053 1.73421754 4.734375 2.640625 C10.02890802 5.55467031 12.93423612 5.97217279 18.875 4.5625 C19.865 3.9025 20.855 3.2425 21.875 2.5625 C21.875 30.2825 21.875 58.0025 21.875 86.5625 C6.035 86.5625 -9.805 86.5625 -26.125 86.5625 C-26.125 58.8425 -26.125 31.1225 -26.125 2.5625 C-23.65 4.0475 -23.65 4.0475 -21.125 5.5625 C-15.83471741 5.5625 -12.61760603 4.40947549 -8 1.875 C-3.5126987 -0.49177782 -3.5126987 -0.49177782 0 0 Z " fill="#7D533A" transform="translate(242.125,105.4375)"/>
<path d="M0 0 C0.97988892 -0.00004028 1.95977783 -0.00008057 2.96936035 -0.00012207 C5.03709339 0.00522942 7.10482616 0.0227962 9.17236328 0.05175781 C12.33299075 0.09360754 15.49148593 0.09282497 18.65234375 0.0859375 C20.66407727 0.09643071 22.67579983 0.10936952 24.6875 0.125 C25.63032837 0.12520142 26.57315674 0.12540283 27.54455566 0.12561035 C32.42077201 0.21334005 35.92386292 0.34902078 39.84375 3.59375 C41.00418673 5.91462347 40.98225616 7.28788707 41.00488281 9.87231445 C41.01449036 10.75695877 41.0240979 11.64160309 41.03399658 12.55305481 C41.03824646 13.51136703 41.04249634 14.46967926 41.046875 15.45703125 C41.05257507 16.44116501 41.05827515 17.42529877 41.06414795 18.43925476 C41.0736055 20.52484052 41.08013492 22.61044127 41.08398438 24.69604492 C41.09367902 27.88291626 41.124691 31.06913979 41.15625 34.25585938 C41.16278108 36.28124617 41.16803114 38.30663758 41.171875 40.33203125 C41.1842218 41.28427078 41.1965686 42.23651031 41.20928955 43.21760559 C41.18065649 51.74809723 41.18065649 51.74809723 37.84375 55.59375 C35.05300837 56.52399721 33.32291725 56.72963179 30.43579102 56.75488281 C29.1040963 56.76929413 29.1040963 56.76929413 27.74549866 56.78399658 C26.78921066 56.78824646 25.83292267 56.79249634 24.84765625 56.796875 C23.86256577 56.80257507 22.87747528 56.80827515 21.86253357 56.81414795 C19.77872796 56.82359434 17.69490744 56.8301305 15.61108398 56.83398438 C12.42209919 56.84370171 9.23375572 56.87473346 6.04492188 56.90625 C4.02083716 56.91277901 1.99674784 56.91802988 -0.02734375 56.921875 C-0.98160751 56.9342218 -1.93587128 56.9465686 -2.91905212 56.95928955 C-3.81000076 56.95628845 -4.7009494 56.95328735 -5.61889648 56.95019531 C-6.40038559 56.95384094 -7.18187469 56.95748657 -7.98704529 56.96124268 C-10.75759115 56.49187466 -12.1177296 55.5019854 -14.15625 53.59375 C-15.0800699 50.8222903 -15.3016925 49.06969756 -15.34912109 46.20166016 C-15.36518402 45.31709137 -15.38124695 44.43252258 -15.39779663 43.52114868 C-15.4423485 39.48611327 -15.4832928 35.45123942 -15.50634766 31.41601562 C-15.5229222 29.28797481 -15.55023175 27.15999 -15.58837891 25.03222656 C-15.64313194 21.96129534 -15.66501728 18.891666 -15.6796875 15.8203125 C-15.70235687 14.87121002 -15.72502625 13.92210754 -15.74838257 12.94424438 C-15.73461695 8.64134607 -15.53939824 6.21997607 -13.25830078 2.49169922 C-8.81759096 -0.22529104 -5.11453163 -0.08893888 0 0 Z " fill="#000000" transform="translate(183.15625,375.40625)"/>
<path d="M0 0 C0.97988892 -0.00004028 1.95977783 -0.00008057 2.96936035 -0.00012207 C5.03709339 0.00522942 7.10482616 0.0227962 9.17236328 0.05175781 C12.33299075 0.09360754 15.49148593 0.09282497 18.65234375 0.0859375 C20.66407727 0.09643071 22.67579983 0.10936952 24.6875 0.125 C25.63032837 0.12520142 26.57315674 0.12540283 27.54455566 0.12561035 C32.42077201 0.21334005 35.92386292 0.34902078 39.84375 3.59375 C41.00418673 5.91462347 40.98225616 7.28788707 41.00488281 9.87231445 C41.01449036 10.75695877 41.0240979 11.64160309 41.03399658 12.55305481 C41.03824646 13.51136703 41.04249634 14.46967926 41.046875 15.45703125 C41.05257507 16.44116501 41.05827515 17.42529877 41.06414795 18.43925476 C41.0736055 20.52484052 41.08013492 22.61044127 41.08398438 24.69604492 C41.09367902 27.88291626 41.124691 31.06913979 41.15625 34.25585938 C41.16278108 36.28124617 41.16803114 38.30663758 41.171875 40.33203125 C41.1842218 41.28427078 41.1965686 42.23651031 41.20928955 43.21760559 C41.18065649 51.74809723 41.18065649 51.74809723 37.84375 55.59375 C35.05300837 56.52399721 33.32291725 56.72963179 30.43579102 56.75488281 C29.1040963 56.76929413 29.1040963 56.76929413 27.74549866 56.78399658 C26.78921066 56.78824646 25.83292267 56.79249634 24.84765625 56.796875 C23.86256577 56.80257507 22.87747528 56.80827515 21.86253357 56.81414795 C19.77872796 56.82359434 17.69490744 56.8301305 15.61108398 56.83398438 C12.42209919 56.84370171 9.23375572 56.87473346 6.04492188 56.90625 C4.02083716 56.91277901 1.99674784 56.91802988 -0.02734375 56.921875 C-0.98160751 56.9342218 -1.93587128 56.9465686 -2.91905212 56.95928955 C-3.81000076 56.95628845 -4.7009494 56.95328735 -5.61889648 56.95019531 C-6.40038559 56.95384094 -7.18187469 56.95748657 -7.98704529 56.96124268 C-10.75759115 56.49187466 -12.1177296 55.5019854 -14.15625 53.59375 C-15.0800699 50.8222903 -15.3016925 49.06969756 -15.34912109 46.20166016 C-15.36518402 45.31709137 -15.38124695 44.43252258 -15.39779663 43.52114868 C-15.4423485 39.48611327 -15.4832928 35.45123942 -15.50634766 31.41601562 C-15.5229222 29.28797481 -15.55023175 27.15999 -15.58837891 25.03222656 C-15.64313194 21.96129534 -15.66501728 18.891666 -15.6796875 15.8203125 C-15.70235687 14.87121002 -15.72502625 13.92210754 -15.74838257 12.94424438 C-15.73461695 8.64134607 -15.53939824 6.21997607 -13.25830078 2.49169922 C-8.81759096 -0.22529104 -5.11453163 -0.08893888 0 0 Z " fill="#000000" transform="translate(111.15625,375.40625)"/>
<path d="M0 0 C0.97988892 -0.00004028 1.95977783 -0.00008057 2.96936035 -0.00012207 C5.03709339 0.00522942 7.10482616 0.0227962 9.17236328 0.05175781 C12.33299075 0.09360754 15.49148593 0.09282497 18.65234375 0.0859375 C20.66407727 0.09643071 22.67579983 0.10936952 24.6875 0.125 C25.63032837 0.12520142 26.57315674 0.12540283 27.54455566 0.12561035 C32.42077201 0.21334005 35.92386292 0.34902078 39.84375 3.59375 C41.00418673 5.91462347 40.98225616 7.28788707 41.00488281 9.87231445 C41.01449036 10.75695877 41.0240979 11.64160309 41.03399658 12.55305481 C41.03824646 13.51136703 41.04249634 14.46967926 41.046875 15.45703125 C41.05257507 16.44116501 41.05827515 17.42529877 41.06414795 18.43925476 C41.0736055 20.52484052 41.08013492 22.61044127 41.08398438 24.69604492 C41.09367902 27.88291626 41.124691 31.06913979 41.15625 34.25585938 C41.16278108 36.28124617 41.16803114 38.30663758 41.171875 40.33203125 C41.1842218 41.28427078 41.1965686 42.23651031 41.20928955 43.21760559 C41.18065649 51.74809723 41.18065649 51.74809723 37.84375 55.59375 C35.05300837 56.52399721 33.32291725 56.72963179 30.43579102 56.75488281 C29.1040963 56.76929413 29.1040963 56.76929413 27.74549866 56.78399658 C26.78921066 56.78824646 25.83292267 56.79249634 24.84765625 56.796875 C23.86256577 56.80257507 22.87747528 56.80827515 21.86253357 56.81414795 C19.77872796 56.82359434 17.69490744 56.8301305 15.61108398 56.83398438 C12.42209919 56.84370171 9.23375572 56.87473346 6.04492188 56.90625 C4.02083716 56.91277901 1.99674784 56.91802988 -0.02734375 56.921875 C-0.98160751 56.9342218 -1.93587128 56.9465686 -2.91905212 56.95928955 C-3.81000076 56.95628845 -4.7009494 56.95328735 -5.61889648 56.95019531 C-6.40038559 56.95384094 -7.18187469 56.95748657 -7.98704529 56.96124268 C-10.75759115 56.49187466 -12.1177296 55.5019854 -14.15625 53.59375 C-15.0800699 50.8222903 -15.3016925 49.06969756 -15.34912109 46.20166016 C-15.36518402 45.31709137 -15.38124695 44.43252258 -15.39779663 43.52114868 C-15.4423485 39.48611327 -15.4832928 35.45123942 -15.50634766 31.41601562 C-15.5229222 29.28797481 -15.55023175 27.15999 -15.58837891 25.03222656 C-15.64313194 21.96129534 -15.66501728 18.891666 -15.6796875 15.8203125 C-15.70235687 14.87121002 -15.72502625 13.92210754 -15.74838257 12.94424438 C-15.73461695 8.64134607 -15.53939824 6.21997607 -13.25830078 2.49169922 C-8.81759096 -0.22529104 -5.11453163 -0.08893888 0 0 Z " fill="#000000" transform="translate(183.15625,311.40625)"/>
<path d="M0 0 C0.97988892 -0.00004028 1.95977783 -0.00008057 2.96936035 -0.00012207 C5.03709339 0.00522942 7.10482616 0.0227962 9.17236328 0.05175781 C12.33299075 0.09360754 15.49148593 0.09282497 18.65234375 0.0859375 C20.66407727 0.09643071 22.67579983 0.10936952 24.6875 0.125 C25.63032837 0.12520142 26.57315674 0.12540283 27.54455566 0.12561035 C32.42077201 0.21334005 35.92386292 0.34902078 39.84375 3.59375 C41.00418673 5.91462347 40.98225616 7.28788707 41.00488281 9.87231445 C41.01449036 10.75695877 41.0240979 11.64160309 41.03399658 12.55305481 C41.03824646 13.51136703 41.04249634 14.46967926 41.046875 15.45703125 C41.05257507 16.44116501 41.05827515 17.42529877 41.06414795 18.43925476 C41.0736055 20.52484052 41.08013492 22.61044127 41.08398438 24.69604492 C41.09367902 27.88291626 41.124691 31.06913979 41.15625 34.25585938 C41.16278108 36.28124617 41.16803114 38.30663758 41.171875 40.33203125 C41.1842218 41.28427078 41.1965686 42.23651031 41.20928955 43.21760559 C41.18065649 51.74809723 41.18065649 51.74809723 37.84375 55.59375 C35.05300837 56.52399721 33.32291725 56.72963179 30.43579102 56.75488281 C29.1040963 56.76929413 29.1040963 56.76929413 27.74549866 56.78399658 C26.78921066 56.78824646 25.83292267 56.79249634 24.84765625 56.796875 C23.86256577 56.80257507 22.87747528 56.80827515 21.86253357 56.81414795 C19.77872796 56.82359434 17.69490744 56.8301305 15.61108398 56.83398438 C12.42209919 56.84370171 9.23375572 56.87473346 6.04492188 56.90625 C4.02083716 56.91277901 1.99674784 56.91802988 -0.02734375 56.921875 C-0.98160751 56.9342218 -1.93587128 56.9465686 -2.91905212 56.95928955 C-3.81000076 56.95628845 -4.7009494 56.95328735 -5.61889648 56.95019531 C-6.40038559 56.95384094 -7.18187469 56.95748657 -7.98704529 56.96124268 C-10.75759115 56.49187466 -12.1177296 55.5019854 -14.15625 53.59375 C-15.0800699 50.8222903 -15.3016925 49.06969756 -15.34912109 46.20166016 C-15.36518402 45.31709137 -15.38124695 44.43252258 -15.39779663 43.52114868 C-15.4423485 39.48611327 -15.4832928 35.45123942 -15.50634766 31.41601562 C-15.5229222 29.28797481 -15.55023175 27.15999 -15.58837891 25.03222656 C-15.64313194 21.96129534 -15.66501728 18.891666 -15.6796875 15.8203125 C-15.70235687 14.87121002 -15.72502625 13.92210754 -15.74838257 12.94424438 C-15.73461695 8.64134607 -15.53939824 6.21997607 -13.25830078 2.49169922 C-8.81759096 -0.22529104 -5.11453163 -0.08893888 0 0 Z " fill="#000000" transform="translate(111.15625,311.40625)"/>
<path d="M0 0 C7.92 0 15.84 0 24 0 C24 29.04 24 58.08 24 88 C16.08 88 8.16 88 0 88 C0 58.96 0 29.92 0 0 Z " fill="#EB9A43" transform="translate(256,328)"/>
<path d="M0 0 C0.66 0 1.32 0 2 0 C5.13591936 6.24657308 8.26875759 12.49468411 11.39941406 18.74389648 C12.46575425 20.87153468 13.5328107 22.99881405 14.60058594 25.12573242 C16.131424 28.17533792 17.65971786 31.2262064 19.1875 34.27734375 C19.66872314 35.23462875 20.14994629 36.19191376 20.64575195 37.1782074 C21.0862085 38.05904495 21.52666504 38.93988251 21.98046875 39.84741211 C22.37129639 40.62684677 22.76212402 41.40628143 23.16479492 42.20933533 C24 44 24 44 24 45 C8.82 45 -6.36 45 -22 45 C-16.73208094 33.87883755 -11.47192299 22.79620101 -5.9375 11.8125 C-5.35806641 10.65814453 -4.77863281 9.50378906 -4.18164062 8.31445312 C-2.78966432 5.54200444 -1.39580385 2.77052305 0 0 Z " fill="#DEE9FA" transform="translate(127,43)"/>
<path d="M0 0 C7.92 0 15.84 0 24 0 C24 7.92 24 15.84 24 24 C16.08 24 8.16 24 0 24 C0 16.08 0 8.16 0 0 Z " fill="#EB9A43" transform="translate(184,392)"/>
<path d="M0 0 C7.92 0 15.84 0 24 0 C24 7.92 24 15.84 24 24 C16.08 24 8.16 24 0 24 C0 16.08 0 8.16 0 0 Z " fill="#EB9A43" transform="translate(112,392)"/>
<path d="M0 0 C7.92 0 15.84 0 24 0 C24 7.92 24 15.84 24 24 C16.08 24 8.16 24 0 24 C0 16.08 0 8.16 0 0 Z " fill="#EB9A43" transform="translate(184,328)"/>
<path d="M0 0 C7.92 0 15.84 0 24 0 C24 7.92 24 15.84 24 24 C16.08 24 8.16 24 0 24 C0 16.08 0 8.16 0 0 Z " fill="#EB9A43" transform="translate(112,328)"/>
<path d="M0 0 C1.81588548 -0.01657008 3.63170547 -0.04387416 5.44726562 -0.08203125 C8.05975307 -0.1366858 10.67070997 -0.1586547 13.28369141 -0.17333984 C14.09627411 -0.19600922 14.90885681 -0.21867859 15.74606323 -0.24203491 C18.04101562 -0.23339844 18.04101562 -0.23339844 21.85400391 0.35009766 C23.92089844 2.7578125 23.92089844 2.7578125 24.85400391 5.35009766 C23.88077872 9.24299839 20.69135838 11.66207763 17.85400391 14.35009766 C14.65770344 13.36076656 11.80322791 12.32259399 8.85400391 10.72509766 C5.31642577 9.10370768 3.70829532 8.75712975 -0.14599609 9.35009766 C-2.75935625 10.61944402 -5.27513053 11.97753195 -7.77880859 13.45166016 C-10.14599609 14.35009766 -10.14599609 14.35009766 -12.27880859 13.66259766 C-14.87258741 11.83935564 -16.97061978 9.64632821 -19.14599609 7.35009766 C-16.02042119 -2.44337038 -9.22042696 0.06177002 0 0 Z " fill="#FCDACB" transform="translate(237.14599609375,79.64990234375)"/>
<path d="M0 0 C5.28 0 10.56 0 16 0 C16 5.28 16 10.56 16 16 C10.72 16 5.44 16 0 16 C0 10.72 0 5.44 0 0 Z " fill="#000000" transform="translate(248,256)"/>
<path d="M0 0 C5.28 0 10.56 0 16 0 C16 5.28 16 10.56 16 16 C10.72 16 5.44 16 0 16 C0 10.72 0 5.44 0 0 Z " fill="#000000" transform="translate(216,256)"/>
<path d="M0 0 C0.66 0 1.32 0 2 0 C3.66987892 3.31089026 5.33536259 6.62397175 7 9.9375 C7.47695312 10.88302734 7.95390625 11.82855469 8.4453125 12.80273438 C8.89648438 13.70185547 9.34765625 14.60097656 9.8125 15.52734375 C10.23144531 16.35999756 10.65039062 17.19265137 11.08203125 18.05053711 C12 20 12 20 12 21 C4.74 21 -2.52 21 -10 21 C-8.535625 17.90625 -7.07125 14.8125 -5.5625 11.625 C-4.87136108 10.16441162 -4.87136108 10.16441162 -4.16625977 8.67431641 C-3.62183228 7.52455322 -3.62183228 7.52455322 -3.06640625 6.3515625 C-2.5086853 5.17327881 -2.5086853 5.17327881 -1.93969727 3.97119141 C-1.30575142 2.641371 -0.65883376 1.31766752 0 0 Z " fill="#345C7A" transform="translate(239,43)"/>
</svg>
